# xmcd
#
# Track frame offsets:
#	150
#	11390
#	25062
#	38221
#	48079
#	62464
#	74100
#	97873
#	121896
#	133528
#	147343
#	160818
#	173418
#	195836
#	226954
#	244248
#	256831
#	274319
#	289724
#	313624
#	327924
#
# Disc length: 4658 seconds
#
# Revision: 0
# Processed by: cddbd v1.5PL3 Copyright (c) Steve Scherf et al.
# Submitted via: audiograbber 1.83.01
#
DISCID=18123015
DTITLE=John Lee HOOKER - Grand collection
DYEAR=1900
DGENRE=
TTITLE0=Unchain My Heart
TTITLE1=Summer In The City
TTITLE2=Human Touch
TTITLE3=First We Take Manhattan
TTITLE4=Up Where We Belong
TTITLE5=No Ordinary World
TTITLE6=The Last One to Know
TTITLE7=When the Night comes
TTITLE8=Don't Let Me Be Misunderstood
TTITLE9=Night Calls
TTITLE10=My Father's Son
TTITLE11=Let the Healing Begin
TTITLE12=N'oubliez Jamais
TTITLE13=Sorry Seems to Be the Hardest Word
TTITLE14=Could You Be Loved
TTITLE15=You Can Leave Your Hat On
TTITLE16=Where Would I Be Now
TTITLE17=You Are So Beautiful
TTITLE18=With A Little Faith in Me
TTITLE19=Unknown
TTITLE20=Unknown
EXTD=
EXTT0=
EXTT1=
EXTT2=
EXTT3=
EXTT4=
EXTT5=
EXTT6=
EXTT7=
EXTT8=
EXTT9=
EXTT10=
EXTT11=
EXTT12=
EXTT13=
EXTT14=
EXTT15=
EXTT16=
EXTT17=
EXTT18=
EXTT19=
EXTT20=
PLAYORDER=
